<svg width="79" height="79" viewBox="0 0 79 79" fill="none" xmlns="http://www.w3.org/2000/svg">
<rect width="79" height="79" rx="20" fill="url(#paint0_radial_6_5)"/>
<path d="M22.4554 59.1847C21.7594 59.1847 21.1415 59.0687 20.6017 58.8366C20.0667 58.5999 19.6429 58.2448 19.3304 57.7713C19.0227 57.2931 18.8688 56.6941 18.8688 55.9744C18.8688 55.3684 18.9753 54.857 19.1884 54.4403C19.4015 54.0237 19.695 53.6851 20.0691 53.4247C20.4431 53.1643 20.874 52.9678 21.3617 52.8352C21.8494 52.6979 22.3702 52.6056 22.9242 52.5582C23.5444 52.5014 24.044 52.4422 24.4228 52.3807C24.8016 52.3144 25.0762 52.2221 25.2466 52.1037C25.4218 51.9806 25.5094 51.8078 25.5094 51.5852V51.5497C25.5094 51.1851 25.3839 50.9034 25.133 50.7045C24.882 50.5057 24.5435 50.4062 24.1174 50.4062C23.6581 50.4062 23.2888 50.5057 23.0094 50.7045C22.7301 50.9034 22.5525 51.178 22.4767 51.5284L19.2736 51.4148C19.3683 50.7519 19.6122 50.16 20.0051 49.6392C20.4029 49.1136 20.9474 48.7017 21.6387 48.4034C22.3347 48.1004 23.1704 47.9489 24.1458 47.9489C24.8418 47.9489 25.4834 48.0317 26.0705 48.1974C26.6576 48.3584 27.169 48.5952 27.6046 48.9077C28.0402 49.2154 28.3764 49.5942 28.6131 50.044C28.8546 50.4938 28.9753 51.0076 28.9753 51.5852V59H25.7083V57.4801H25.623C25.4289 57.8494 25.1803 58.1619 24.8773 58.4176C24.579 58.6733 24.2263 58.8651 23.8191 58.9929C23.4166 59.1207 22.9621 59.1847 22.4554 59.1847ZM23.5279 56.9119C23.9019 56.9119 24.2381 56.8362 24.5364 56.6847C24.8394 56.5331 25.0809 56.3248 25.2608 56.0597C25.4408 55.7898 25.5307 55.4773 25.5307 55.1222V54.0852C25.4313 54.1373 25.3105 54.1847 25.1685 54.2273C25.0312 54.2699 24.8797 54.3101 24.714 54.348C24.5482 54.3859 24.3778 54.419 24.2026 54.4474C24.0274 54.4759 23.8593 54.5019 23.6983 54.5256C23.3716 54.5777 23.0923 54.6581 22.8603 54.767C22.633 54.8759 22.4578 55.018 22.3347 55.1932C22.2163 55.3636 22.1571 55.5672 22.1571 55.804C22.1571 56.1638 22.285 56.4384 22.5407 56.6278C22.8011 56.8172 23.1301 56.9119 23.5279 56.9119ZM39.6926 60.0582L37.8603 58.2401L42.1287 53.9716H32.498V51.3011H42.1287L37.8603 47.0398L39.6926 45.2145L47.1145 52.6364L39.6926 60.0582ZM50.2093 59V57.0185L55.2662 50.8608V50.7898H50.3869V48.0909H59.4068V50.2642L54.7193 56.2301V56.3011H59.5772V59H50.2093Z" fill="white"/>
<path d="M30.4879 20.4545V35H27.505L21.7166 26.6051H21.6243V35H18.1087V20.4545H21.1342L26.8587 28.8352H26.9794V20.4545H30.4879ZM31.9741 20.4545H35.9016L38.9769 26.5412H39.1048L42.18 20.4545H46.1076L40.788 30.142V35H37.2937V30.142L31.9741 20.4545ZM56.381 20.4545H59.8896V29.8366C59.8896 30.9209 59.6315 31.8655 59.1154 32.6705C58.5993 33.4706 57.8796 34.0909 56.9563 34.5312C56.033 34.9669 54.9606 35.1847 53.739 35.1847C52.5032 35.1847 51.4237 34.9669 50.5004 34.5312C49.5771 34.0909 48.8597 33.4706 48.3484 32.6705C47.837 31.8655 47.5813 30.9209 47.5813 29.8366V20.4545H51.0969V29.5312C51.0969 30.0331 51.2058 30.4806 51.4237 30.8736C51.6462 31.2666 51.9563 31.5743 52.354 31.7969C52.7518 32.0194 53.2134 32.1307 53.739 32.1307C54.2646 32.1307 54.7238 32.0194 55.1168 31.7969C55.5146 31.5743 55.8247 31.2666 56.0472 30.8736C56.2698 30.4806 56.381 30.0331 56.381 29.5312V20.4545Z" fill="white"/>
<defs>
<radialGradient id="paint0_radial_6_5" cx="0" cy="0" r="1" gradientUnits="userSpaceOnUse" gradientTransform="translate(39.5 39.5) rotate(90) scale(74.5)">
<stop stop-color="#7B57F0"/>
<stop offset="1" stop-color="#E22272"/>
</radialGradient>
</defs>
</svg>
