<svg width="543" height="543" viewBox="0 0 543 543" fill="none" xmlns="http://www.w3.org/2000/svg">
<rect width="543" height="543" rx="20" fill="url(#paint0_radial_14_5)"/>
<path d="M157.7 334.453L175.958 366.038H176.739L195.192 334.453H222.236L192.067 384.442L223.212 434.43H195.485L176.739 402.504H175.958L157.212 434.43H129.679L160.678 384.442L130.46 334.453H157.7ZM322.994 434.43V420.664L371.567 354.078H323.043V334.453H402.126V348.22L353.554 414.806H402.078V434.43H322.994Z" fill="white"/>
<path d="M214.775 114.504V214.481H194.272L154.486 156.779H153.851V214.481H129.687V114.504H150.483L189.829 172.108H190.659V114.504H214.775ZM379.056 114.504H403.171V178.991C403.171 186.444 401.398 192.936 397.85 198.469C394.303 203.969 389.356 208.232 383.01 211.259C376.664 214.253 369.293 215.75 360.896 215.75C352.402 215.75 344.982 214.253 338.635 211.259C332.289 208.232 327.359 203.969 323.844 198.469C320.329 192.936 318.572 186.444 318.572 178.991V114.504H342.736V176.892C342.736 180.342 343.485 183.417 344.982 186.118C346.511 188.82 348.643 190.935 351.377 192.465C354.11 193.994 357.284 194.759 360.896 194.759C364.508 194.759 367.665 193.994 370.366 192.465C373.1 190.935 375.232 188.82 376.761 186.118C378.291 183.417 379.056 180.342 379.056 176.892V114.504Z" fill="white"/>
<path d="M221.103 224.479H248.098L269.236 266.315H270.115L291.252 224.479H318.248L281.684 291.065V324.456H257.666V291.065L221.103 224.479Z" fill="white"/>
<defs>
<radialGradient id="paint0_radial_14_5" cx="0" cy="0" r="1" gradientUnits="userSpaceOnUse" gradientTransform="translate(271.5 271.5) rotate(90) scale(373.5)">
<stop stop-color="#7B57F0"/>
<stop offset="1" stop-color="#BB26EF"/>
</radialGradient>
</defs>
</svg>
